<?xml version="1.0" standalone="no"?>
<!DOCTYPE svg PUBLIC "-//W3C//DTD SVG 20010904//EN"
 "http://www.w3.org/TR/2001/REC-SVG-20010904/DTD/svg10.dtd">
<svg version="1.0" xmlns="http://www.w3.org/2000/svg"
 width="1000.000000pt" height="392.000000pt" viewBox="0 0 1000.000000 392.000000"
 preserveAspectRatio="xMidYMid meet">

<g transform="translate(0.000000,392.000000) scale(0.100000,-0.100000)"
fill="#000000" stroke="none">
<path d="M1621 3749 c-1032 -108 -1760 -1056 -1596 -2079 61 -379 228 -703
505 -980 153 -154 270 -241 440 -329 240 -123 464 -185 743 -206 l87 -6 0 670
0 669 -69 12 c-262 44 -434 295 -380 552 19 89 58 158 128 228 77 76 150 115
250 132 l71 12 0 668 0 668 -47 -1 c-27 -1 -86 -6 -132 -10z"/>
<path d="M7530 3755 c0 -11 -101 -682 -105 -703 l-6 -23 -29 21 c-16 11 -59
34 -95 51 -61 29 -73 31 -145 27 -232 -14 -402 -229 -464 -588 -20 -116 -20
-293 -1 -385 39 -185 158 -297 315 -297 79 0 143 23 228 81 34 23 62 38 62 34
-1 -4 -5 -27 -9 -51 l-8 -43 74 3 75 3 18 58 c35 112 121 195 237 226 33 9 43
17 47 39 10 48 236 1520 236 1536 0 14 -27 16 -215 16 -118 0 -215 -2 -215 -5z
m-208 -1002 c46 -52 47 -157 3 -329 -38 -150 -94 -213 -165 -184 -47 19 -64
79 -56 193 14 204 80 337 166 337 23 0 43 -7 52 -17z"/>
<path d="M4330 3596 c0 -4 -58 -387 -130 -851 -71 -464 -130 -848 -130 -854 0
-7 43 -11 130 -11 l131 0 53 40 c28 22 82 53 118 69 54 25 67 36 72 58 6 30
66 410 66 419 0 3 10 4 23 2 20 -3 25 -18 62 -203 l41 -200 99 -6 c55 -4 126
-12 158 -19 62 -12 180 -58 234 -90 18 -11 33 -15 33 -11 0 5 -36 142 -80 304
-44 161 -80 299 -80 305 0 7 30 30 66 53 152 97 236 288 237 539 1 234 -100
376 -308 435 -50 14 -122 18 -427 22 -203 3 -368 2 -368 -1z m558 -353 c33
-21 62 -89 62 -149 0 -147 -94 -264 -213 -264 l-43 0 33 213 c18 116 33 216
33 220 0 12 102 -4 128 -20z"/>
<path d="M5890 3118 c-162 -25 -290 -149 -375 -362 -92 -234 -110 -506 -43
-683 27 -73 102 -154 177 -190 47 -24 69 -28 136 -28 86 1 146 21 246 86 51
32 60 35 55 17 -3 -7 -7 -28 -10 -46 l-6 -32 182 2 182 3 93 605 c51 333 93
606 93 608 0 1 -83 2 -184 2 -198 0 -196 1 -196 -54 0 -36 -10 -37 -57 -5
-101 70 -190 94 -293 77z m193 -395 c42 -39 44 -116 5 -288 -25 -112 -59 -177
-104 -201 -31 -17 -37 -17 -62 -4 -61 34 -77 129 -46 277 28 139 69 215 124
236 21 8 62 -2 83 -20z"/>
<path d="M8355 3118 c-33 -4 -88 -22 -122 -38 -187 -92 -333 -412 -336 -735
-2 -155 5 -189 42 -205 69 -28 147 -137 158 -219 6 -42 28 -55 114 -67 83 -11
214 33 307 102 17 14 32 21 32 17 -1 -4 -5 -27 -9 -50 l-8 -43 181 0 182 0 88
578 c48 317 90 592 93 610 l6 32 -186 0 c-183 0 -185 0 -191 -22 -3 -13 -6
-33 -6 -45 0 -13 -2 -23 -5 -23 -2 0 -29 18 -61 40 -89 62 -173 83 -279 68z
m159 -378 c36 -13 66 -67 66 -116 0 -48 -24 -185 -46 -259 -39 -134 -134 -185
-189 -101 -27 41 -29 129 -7 238 26 126 61 201 104 228 38 23 38 23 72 10z"/>
<path d="M9910 3091 c-85 -27 -119 -49 -194 -120 l-69 -66 6 45 c4 25 9 69 13
98 l7 52 -197 0 c-195 0 -196 0 -201 -22 -7 -32 -175 -1165 -175 -1183 0 -12
18 -15 98 -15 l98 0 12 88 c7 48 18 115 23 150 l11 62 113 0 113 0 7 53 c33
264 50 318 118 385 52 51 102 72 187 81 l65 6 21 160 c11 88 23 179 26 203 7
49 3 51 -82 23z"/>
<path d="M7697 2066 c-57 -16 -120 -72 -148 -131 -28 -59 -26 -159 4 -216 29
-55 124 -109 191 -109 96 0 189 59 231 145 25 50 26 156 3 201 -27 50 -79 94
-132 109 -59 18 -85 18 -149 1z"/>
<path d="M9430 2075 c0 -6 -278 -1814 -284 -1847 l-5 -28 214 0 c118 0 215 4
215 9 0 4 65 424 145 932 80 508 145 927 145 931 0 4 -97 8 -215 8 -118 0
-215 -2 -215 -5z"/>
<path d="M4685 1940 c-216 -46 -373 -187 -420 -378 -36 -146 -23 -291 36 -410
34 -71 135 -183 225 -253 62 -47 104 -111 104 -156 0 -78 -85 -139 -190 -137
-82 2 -146 26 -244 94 -42 29 -78 51 -79 49 -3 -4 -68 -411 -70 -443 -2 -14
19 -27 95 -57 204 -83 366 -103 523 -65 291 70 480 322 462 616 -12 182 -76
293 -268 463 -147 131 -164 201 -59 255 66 34 138 26 247 -28 45 -22 86 -42
90 -43 4 -1 21 90 38 203 l31 205 -20 12 c-12 7 -57 27 -101 44 -74 30 -90 32
-220 35 -77 2 -158 -1 -180 -6z"/>
<path d="M5692 1440 c-218 -57 -353 -218 -433 -515 -30 -110 -32 -332 -6 -420
44 -141 123 -238 237 -292 86 -41 164 -57 280 -57 163 0 274 45 386 158 55 55
81 92 118 166 100 204 132 482 76 662 -45 146 -169 264 -315 302 -84 22 -250
20 -343 -4z m203 -374 c28 -28 45 -83 45 -146 0 -68 -27 -222 -50 -284 -24
-62 -77 -116 -116 -116 -40 0 -80 26 -95 62 -39 93 13 395 82 473 26 29 38 35
70 35 29 0 47 -7 64 -24z"/>
<path d="M6910 1426 c-105 -32 -138 -47 -197 -94 -99 -79 -184 -226 -225 -390
-19 -72 -22 -115 -22 -252 0 -177 10 -226 68 -325 33 -55 117 -132 171 -156
106 -47 292 -48 396 -2 l44 20 29 177 c16 97 26 179 23 182 -3 3 -24 0 -48 -6
-60 -16 -126 -14 -154 4 -71 46 -91 184 -47 323 24 77 64 133 113 159 37 18
132 18 169 -1 17 -9 30 -14 31 -13 10 36 43 351 37 354 -5 3 -39 14 -76 25
-93 26 -215 25 -312 -5z"/>
<path d="M8324 1416 c-33 -12 -75 -32 -91 -44 -153 -109 -274 -392 -289 -677
-13 -250 58 -416 211 -491 111 -54 233 -40 366 42 39 24 73 44 75 44 4 0 -1
-31 -13 -73 -4 -16 7 -17 179 -15 l183 3 92 600 c51 330 92 603 93 608 0 4
-83 7 -184 7 -201 0 -196 2 -196 -61 0 -16 -3 -29 -6 -29 -3 0 -25 14 -50 30
-88 61 -142 80 -229 79 -58 0 -97 -6 -141 -23z m279 -387 c30 -42 31 -102 4
-238 -31 -148 -59 -208 -110 -236 -34 -18 -39 -19 -64 -5 -16 9 -36 31 -46 50
-46 88 19 391 95 445 35 24 96 16 121 -16z"/>
<path d="M7480 1409 c0 -5 -40 -275 -90 -598 -49 -324 -90 -594 -90 -600 0 -8
62 -11 210 -11 l209 0 6 33 c18 103 175 1145 175 1164 l0 23 -210 0 c-141 0
-210 -3 -210 -11z"/>
</g>
</svg>
